<mxfile host="app.diagrams.net" agent="Mozilla/5.0 (Windows NT 10.0; Win64; x64) AppleWebKit/537.36 (KHTML, like Gecko) Chrome/130.0.0.0 Safari/537.36" version="26.0.4">
  <diagram name="Страница — 1" id="UPR7Q1RNGNHmU0GiBoz7">
    <mxGraphModel dx="1434" dy="746" grid="1" gridSize="10" guides="1" tooltips="1" connect="1" arrows="1" fold="1" page="1" pageScale="1" pageWidth="827" pageHeight="1169" math="0" shadow="0">
      <root>
        <mxCell id="0" />
        <mxCell id="1" parent="0" />
        <object placeholders="1" c4Name="Инженер ИБ" c4Type="Person" c4Description="Реагирует на предупреждения об угрозах." label="&lt;font style=&quot;font-size: 16px&quot;&gt;&lt;b&gt;%c4Name%&lt;/b&gt;&lt;/font&gt;&lt;div&gt;[%c4Type%]&lt;/div&gt;&lt;br&gt;&lt;div&gt;&lt;font style=&quot;font-size: 11px&quot;&gt;&lt;font color=&quot;#cccccc&quot;&gt;%c4Description%&lt;/font&gt;&lt;/div&gt;" id="rQDg3eFiB01NHNLz-rsv-1">
          <mxCell style="html=1;fontSize=11;dashed=0;whiteSpace=wrap;fillColor=#083F75;strokeColor=#06315C;fontColor=#ffffff;shape=mxgraph.c4.person2;align=center;metaEdit=1;points=[[0.5,0,0],[1,0.5,0],[1,0.75,0],[0.75,1,0],[0.5,1,0],[0.25,1,0],[0,0.75,0],[0,0.5,0]];resizable=0;" vertex="1" parent="1">
            <mxGeometry x="1550" y="10" width="200" height="180" as="geometry" />
          </mxCell>
        </object>
        <object placeholders="1" c4Name="Мобильное приложение&#xa;Системы ИБ" c4Type="" c4Technology="" c4Description="IOS, Android&#xa;получает уведомления ИБ" label="&lt;font style=&quot;font-size: 16px&quot;&gt;&lt;b&gt;%c4Name%&lt;/b&gt;&lt;/font&gt;&lt;br&gt;&lt;div&gt;&lt;font style=&quot;font-size: 11px&quot;&gt;&lt;font color=&quot;#E6E6E6&quot;&gt;[%c4Description%]&lt;/font&gt;&lt;/div&gt;&#xa;" id="rQDg3eFiB01NHNLz-rsv-2">
          <mxCell style="shape=mxgraph.c4.webBrowserContainer2;whiteSpace=wrap;html=1;boundedLbl=1;rounded=0;labelBackgroundColor=none;strokeColor=#118ACD;fillColor=#23A2D9;strokeColor=#118ACD;strokeColor2=#0E7DAD;fontSize=12;fontColor=#ffffff;align=center;metaEdit=1;points=[[0.5,0,0],[1,0.25,0],[1,0.5,0],[1,0.75,0],[0.5,1,0],[0,0.75,0],[0,0.5,0],[0,0.25,0]];resizable=0;" vertex="1" parent="1">
            <mxGeometry x="1240" y="10" width="240" height="160" as="geometry" />
          </mxCell>
        </object>
        <object placeholders="1" c4Name="API Gateway Cервиса ИБ" c4Type="Container" c4Technology="Envoy" c4Description="API шлюз и балансировщик" label="&lt;font style=&quot;font-size: 16px&quot;&gt;&lt;b&gt;%c4Name%&lt;/b&gt;&lt;/font&gt;&lt;div&gt;[%c4Type%: %c4Technology%]&lt;/div&gt;&lt;br&gt;&lt;div&gt;&lt;font style=&quot;font-size: 11px&quot;&gt;%c4Description%&lt;/font&gt;&lt;/div&gt;" id="rQDg3eFiB01NHNLz-rsv-3">
          <mxCell style="rounded=1;whiteSpace=wrap;html=1;labelBackgroundColor=none;fillColor=#63BEF2;fontColor=#ffffff;align=center;arcSize=6;strokeColor=#2086C9;metaEdit=1;resizable=0;points=[[0.25,0,0],[0.5,0,0],[0.75,0,0],[1,0.25,0],[1,0.5,0],[1,0.75,0],[0.75,1,0],[0.5,1,0],[0.25,1,0],[0,0.75,0],[0,0.5,0],[0,0.25,0]];" vertex="1" parent="1">
            <mxGeometry x="350" y="50" width="240" height="120" as="geometry" />
          </mxCell>
        </object>
        <object placeholders="1" c4Name="Внедряемый модуль безопасности" c4Type="Системная утилита" c4Technology="C# для IoT " c4Description="- Мониторит сетевой трафик.&#xa;- Передает телеметрию&#xa;на сервер ИБ" label="&lt;font style=&quot;font-size: 16px&quot;&gt;&lt;b&gt;%c4Name%&lt;/b&gt;&lt;/font&gt;&lt;div&gt;[%c4Type%: %c4Technology%]&lt;/div&gt;&lt;br&gt;&lt;div&gt;&lt;font style=&quot;font-size: 11px&quot;&gt;&lt;font color=&quot;#E6E6E6&quot;&gt;%c4Description%&lt;/font&gt;&lt;/div&gt;" id="rQDg3eFiB01NHNLz-rsv-4">
          <mxCell style="rounded=1;whiteSpace=wrap;html=1;fontSize=11;labelBackgroundColor=none;fillColor=#23A2D9;fontColor=#ffffff;align=center;arcSize=10;strokeColor=#0E7DAD;metaEdit=1;resizable=0;points=[[0.25,0,0],[0.5,0,0],[0.75,0,0],[1,0.25,0],[1,0.5,0],[1,0.75,0],[0.75,1,0],[0.5,1,0],[0.25,1,0],[0,0.75,0],[0,0.5,0],[0,0.25,0]];" vertex="1" parent="1">
            <mxGeometry x="40" y="50" width="240" height="120" as="geometry" />
          </mxCell>
        </object>
        <object placeholders="1" c4Name="Сервис ИБ" c4Type="Component" c4Technology="ASP.Net Core WebApi" c4Description="- Cбор телеметрии от&#xa;внедряемого модуля&#xa;безопасности.&#xa;- Оповещение об угрозах." label="&lt;font style=&quot;font-size: 16px&quot;&gt;&lt;b&gt;%c4Name%&lt;/b&gt;&lt;/font&gt;&lt;div&gt;[%c4Type%: %c4Technology%]&lt;/div&gt;&lt;br&gt;&lt;div&gt;&lt;font style=&quot;font-size: 11px&quot;&gt;%c4Description%&lt;/font&gt;&lt;/div&gt;" id="rQDg3eFiB01NHNLz-rsv-5">
          <mxCell style="rounded=1;whiteSpace=wrap;html=1;labelBackgroundColor=none;fillColor=#63BEF2;fontColor=#ffffff;align=center;arcSize=6;strokeColor=#2086C9;metaEdit=1;resizable=0;points=[[0.25,0,0],[0.5,0,0],[0.75,0,0],[1,0.25,0],[1,0.5,0],[1,0.75,0],[0.75,1,0],[0.5,1,0],[0.25,1,0],[0,0.75,0],[0,0.5,0],[0,0.25,0]];" vertex="1" parent="1">
            <mxGeometry x="650" y="50" width="240" height="120" as="geometry" />
          </mxCell>
        </object>
        <object placeholders="1" c4Name="Хранилище телеметрии" c4Type="Container" c4Technology="Elastic + Kibana" c4Description="Хранение и отображение телеметрии" label="&lt;font style=&quot;font-size: 16px&quot;&gt;&lt;b&gt;%c4Name%&lt;/b&gt;&lt;/font&gt;&lt;div&gt;[%c4Type%: %c4Technology%]&lt;/div&gt;&lt;br&gt;&lt;div&gt;&lt;font style=&quot;font-size: 11px&quot;&gt;&lt;font color=&quot;#E6E6E6&quot;&gt;%c4Description%&lt;/font&gt;&lt;/div&gt;" id="rQDg3eFiB01NHNLz-rsv-6">
          <mxCell style="rounded=1;whiteSpace=wrap;html=1;fontSize=11;labelBackgroundColor=none;fillColor=#23A2D9;fontColor=#ffffff;align=center;arcSize=10;strokeColor=#0E7DAD;metaEdit=1;resizable=0;points=[[0.25,0,0],[0.5,0,0],[0.75,0,0],[1,0.25,0],[1,0.5,0],[1,0.75,0],[0.75,1,0],[0.5,1,0],[0.25,1,0],[0,0.75,0],[0,0.5,0],[0,0.25,0]];" vertex="1" parent="1">
            <mxGeometry x="940" y="50" width="240" height="120" as="geometry" />
          </mxCell>
        </object>
        <mxCell id="rQDg3eFiB01NHNLz-rsv-7" value="" style="html=1;points=[[0,0,0,0,5],[0,1,0,0,-5],[1,0,0,0,5],[1,1,0,0,-5]];perimeter=orthogonalPerimeter;outlineConnect=0;targetShapes=umlLifeline;portConstraint=eastwest;newEdgeStyle={&quot;curved&quot;:0,&quot;rounded&quot;:0};fillColor=light-dark(#23458b, #6db2ff);fontColor=#ffffff;strokeColor=#001DBC;" vertex="1" parent="1">
          <mxGeometry x="160" y="240" width="10" height="130" as="geometry" />
        </mxCell>
        <mxCell id="rQDg3eFiB01NHNLz-rsv-8" value="" style="endArrow=none;dashed=1;html=1;rounded=0;" edge="1" parent="1" source="rQDg3eFiB01NHNLz-rsv-7">
          <mxGeometry width="50" height="50" relative="1" as="geometry">
            <mxPoint x="164.66000000000003" y="399.9999999999999" as="sourcePoint" />
            <mxPoint x="165" y="470" as="targetPoint" />
          </mxGeometry>
        </mxCell>
        <mxCell id="rQDg3eFiB01NHNLz-rsv-9" value="" style="endArrow=none;dashed=1;html=1;rounded=0;entryX=0.5;entryY=1;entryDx=0;entryDy=0;entryPerimeter=0;" edge="1" parent="1">
          <mxGeometry width="50" height="50" relative="1" as="geometry">
            <mxPoint x="165.32999999999998" y="240" as="sourcePoint" />
            <mxPoint x="165.32999999999998" y="170" as="targetPoint" />
          </mxGeometry>
        </mxCell>
        <mxCell id="rQDg3eFiB01NHNLz-rsv-10" value="" style="endArrow=none;dashed=1;html=1;rounded=0;entryX=0.5;entryY=1;entryDx=0;entryDy=0;entryPerimeter=0;" edge="1" parent="1" source="rQDg3eFiB01NHNLz-rsv-13">
          <mxGeometry width="50" height="50" relative="1" as="geometry">
            <mxPoint x="495" y="240" as="sourcePoint" />
            <mxPoint x="465" y="170" as="targetPoint" />
          </mxGeometry>
        </mxCell>
        <mxCell id="rQDg3eFiB01NHNLz-rsv-11" value="" style="endArrow=classic;html=1;rounded=0;" edge="1" parent="1">
          <mxGeometry relative="1" as="geometry">
            <mxPoint x="170" y="250" as="sourcePoint" />
            <mxPoint x="460" y="250" as="targetPoint" />
          </mxGeometry>
        </mxCell>
        <mxCell id="rQDg3eFiB01NHNLz-rsv-12" value="Передает критичное&amp;nbsp;&lt;div&gt;оповещение безопасности&lt;/div&gt;" style="edgeLabel;resizable=0;html=1;;align=center;verticalAlign=middle;" connectable="0" vertex="1" parent="rQDg3eFiB01NHNLz-rsv-11">
          <mxGeometry relative="1" as="geometry" />
        </mxCell>
        <mxCell id="rQDg3eFiB01NHNLz-rsv-13" value="" style="html=1;points=[[0,0,0,0,5],[0,1,0,0,-5],[1,0,0,0,5],[1,1,0,0,-5]];perimeter=orthogonalPerimeter;outlineConnect=0;targetShapes=umlLifeline;portConstraint=eastwest;newEdgeStyle={&quot;curved&quot;:0,&quot;rounded&quot;:0};fillColor=light-dark(#23458b, #6db2ff);fontColor=#ffffff;strokeColor=#001DBC;" vertex="1" parent="1">
          <mxGeometry x="460" y="250" width="10" height="110" as="geometry" />
        </mxCell>
        <mxCell id="rQDg3eFiB01NHNLz-rsv-14" value="" style="endArrow=none;dashed=1;html=1;rounded=0;" edge="1" parent="1" source="rQDg3eFiB01NHNLz-rsv-29">
          <mxGeometry width="50" height="50" relative="1" as="geometry">
            <mxPoint x="465" y="530" as="sourcePoint" />
            <mxPoint x="465" y="470" as="targetPoint" />
          </mxGeometry>
        </mxCell>
        <mxCell id="rQDg3eFiB01NHNLz-rsv-15" value="" style="endArrow=none;dashed=1;html=1;rounded=0;entryX=0.5;entryY=1;entryDx=0;entryDy=0;entryPerimeter=0;" edge="1" parent="1" source="rQDg3eFiB01NHNLz-rsv-18">
          <mxGeometry width="50" height="50" relative="1" as="geometry">
            <mxPoint x="765" y="260" as="sourcePoint" />
            <mxPoint x="765" y="170" as="targetPoint" />
          </mxGeometry>
        </mxCell>
        <mxCell id="rQDg3eFiB01NHNLz-rsv-16" value="" style="endArrow=classic;html=1;rounded=0;" edge="1" parent="1">
          <mxGeometry relative="1" as="geometry">
            <mxPoint x="470" y="319.5" as="sourcePoint" />
            <mxPoint x="760" y="319.5" as="targetPoint" />
          </mxGeometry>
        </mxCell>
        <mxCell id="rQDg3eFiB01NHNLz-rsv-17" value="Передает критичное&amp;nbsp;&lt;div&gt;оповещение безопасности&lt;/div&gt;" style="edgeLabel;resizable=0;html=1;;align=center;verticalAlign=middle;" connectable="0" vertex="1" parent="rQDg3eFiB01NHNLz-rsv-16">
          <mxGeometry relative="1" as="geometry" />
        </mxCell>
        <mxCell id="rQDg3eFiB01NHNLz-rsv-18" value="" style="html=1;points=[[0,0,0,0,5],[0,1,0,0,-5],[1,0,0,0,5],[1,1,0,0,-5]];perimeter=orthogonalPerimeter;outlineConnect=0;targetShapes=umlLifeline;portConstraint=eastwest;newEdgeStyle={&quot;curved&quot;:0,&quot;rounded&quot;:0};fillColor=light-dark(#23458b, #6db2ff);fontColor=#ffffff;strokeColor=#001DBC;" vertex="1" parent="1">
          <mxGeometry x="760" y="320" width="10" height="30" as="geometry" />
        </mxCell>
        <mxCell id="rQDg3eFiB01NHNLz-rsv-20" value="" style="endArrow=classic;html=1;rounded=0;" edge="1" parent="1">
          <mxGeometry relative="1" as="geometry">
            <mxPoint x="770" y="330" as="sourcePoint" />
            <mxPoint x="1060" y="330" as="targetPoint" />
          </mxGeometry>
        </mxCell>
        <mxCell id="rQDg3eFiB01NHNLz-rsv-21" value="Сохраняет критичное&amp;nbsp;&lt;div&gt;оповещение безопасности&lt;/div&gt;" style="edgeLabel;resizable=0;html=1;;align=center;verticalAlign=middle;" connectable="0" vertex="1" parent="rQDg3eFiB01NHNLz-rsv-20">
          <mxGeometry relative="1" as="geometry" />
        </mxCell>
        <mxCell id="rQDg3eFiB01NHNLz-rsv-22" value="" style="endArrow=none;dashed=1;html=1;rounded=0;entryX=0.521;entryY=1;entryDx=0;entryDy=0;entryPerimeter=0;" edge="1" parent="1" source="rQDg3eFiB01NHNLz-rsv-23" target="rQDg3eFiB01NHNLz-rsv-6">
          <mxGeometry width="50" height="50" relative="1" as="geometry">
            <mxPoint x="1065" y="270" as="sourcePoint" />
            <mxPoint x="1065" y="180" as="targetPoint" />
          </mxGeometry>
        </mxCell>
        <mxCell id="rQDg3eFiB01NHNLz-rsv-23" value="" style="html=1;points=[[0,0,0,0,5],[0,1,0,0,-5],[1,0,0,0,5],[1,1,0,0,-5]];perimeter=orthogonalPerimeter;outlineConnect=0;targetShapes=umlLifeline;portConstraint=eastwest;newEdgeStyle={&quot;curved&quot;:0,&quot;rounded&quot;:0};fillColor=light-dark(#23458b, #6db2ff);fontColor=#ffffff;strokeColor=#001DBC;" vertex="1" parent="1">
          <mxGeometry x="1060" y="330" width="10" height="20" as="geometry" />
        </mxCell>
        <mxCell id="rQDg3eFiB01NHNLz-rsv-24" value="" style="endArrow=none;dashed=1;html=1;rounded=0;" edge="1" parent="1" source="rQDg3eFiB01NHNLz-rsv-23">
          <mxGeometry width="50" height="50" relative="1" as="geometry">
            <mxPoint x="1065" y="550" as="sourcePoint" />
            <mxPoint x="1065" y="470" as="targetPoint" />
          </mxGeometry>
        </mxCell>
        <mxCell id="rQDg3eFiB01NHNLz-rsv-25" value="" style="endArrow=classic;html=1;rounded=0;" edge="1" parent="1" source="rQDg3eFiB01NHNLz-rsv-29" target="rQDg3eFiB01NHNLz-rsv-32">
          <mxGeometry relative="1" as="geometry">
            <mxPoint x="760" y="420" as="sourcePoint" />
            <mxPoint x="1350" y="420" as="targetPoint" />
          </mxGeometry>
        </mxCell>
        <mxCell id="rQDg3eFiB01NHNLz-rsv-26" value="Передает критичное&amp;nbsp;&lt;div&gt;оповещение безопасности&lt;/div&gt;" style="edgeLabel;resizable=0;html=1;;align=center;verticalAlign=middle;" connectable="0" vertex="1" parent="rQDg3eFiB01NHNLz-rsv-25">
          <mxGeometry relative="1" as="geometry">
            <mxPoint x="60" as="offset" />
          </mxGeometry>
        </mxCell>
        <mxCell id="rQDg3eFiB01NHNLz-rsv-27" value="" style="html=1;points=[[0,0,0,0,5],[0,1,0,0,-5],[1,0,0,0,5],[1,1,0,0,-5]];perimeter=orthogonalPerimeter;outlineConnect=0;targetShapes=umlLifeline;portConstraint=eastwest;newEdgeStyle={&quot;curved&quot;:0,&quot;rounded&quot;:0};fillColor=light-dark(#23458b, #6db2ff);fontColor=#ffffff;strokeColor=#001DBC;" vertex="1" parent="1">
          <mxGeometry x="470" y="270" width="10" height="40" as="geometry" />
        </mxCell>
        <mxCell id="rQDg3eFiB01NHNLz-rsv-28" value="Аутентификация" style="endArrow=block;endSize=16;endFill=0;html=1;rounded=0;" edge="1" parent="1" target="rQDg3eFiB01NHNLz-rsv-27">
          <mxGeometry x="0.1" y="20" width="160" relative="1" as="geometry">
            <mxPoint x="470" y="260" as="sourcePoint" />
            <mxPoint x="505" y="340" as="targetPoint" />
            <Array as="points">
              <mxPoint x="505" y="260" />
              <mxPoint x="505" y="300" />
            </Array>
            <mxPoint as="offset" />
          </mxGeometry>
        </mxCell>
        <mxCell id="rQDg3eFiB01NHNLz-rsv-30" value="" style="endArrow=none;dashed=1;html=1;rounded=0;" edge="1" parent="1" source="rQDg3eFiB01NHNLz-rsv-18" target="rQDg3eFiB01NHNLz-rsv-41">
          <mxGeometry width="50" height="50" relative="1" as="geometry">
            <mxPoint x="765" y="350" as="sourcePoint" />
            <mxPoint x="765" y="430" as="targetPoint" />
          </mxGeometry>
        </mxCell>
        <mxCell id="rQDg3eFiB01NHNLz-rsv-31" value="" style="endArrow=none;dashed=1;html=1;rounded=0;entryX=0.5;entryY=1;entryDx=0;entryDy=0;entryPerimeter=0;" edge="1" parent="1" source="rQDg3eFiB01NHNLz-rsv-32">
          <mxGeometry width="50" height="50" relative="1" as="geometry">
            <mxPoint x="1365" y="260" as="sourcePoint" />
            <mxPoint x="1365" y="170" as="targetPoint" />
          </mxGeometry>
        </mxCell>
        <mxCell id="rQDg3eFiB01NHNLz-rsv-33" value="" style="endArrow=none;dashed=1;html=1;rounded=0;" edge="1" parent="1" source="rQDg3eFiB01NHNLz-rsv-32">
          <mxGeometry width="50" height="50" relative="1" as="geometry">
            <mxPoint x="1365" y="350" as="sourcePoint" />
            <mxPoint x="1365" y="380" as="targetPoint" />
          </mxGeometry>
        </mxCell>
        <mxCell id="rQDg3eFiB01NHNLz-rsv-34" value="" style="endArrow=none;dashed=1;html=1;rounded=0;" edge="1" parent="1" source="rQDg3eFiB01NHNLz-rsv-32">
          <mxGeometry width="50" height="50" relative="1" as="geometry">
            <mxPoint x="1364.71" y="420" as="sourcePoint" />
            <mxPoint x="1365" y="440" as="targetPoint" />
          </mxGeometry>
        </mxCell>
        <mxCell id="rQDg3eFiB01NHNLz-rsv-35" value="" style="endArrow=none;dashed=1;html=1;rounded=0;entryX=0.5;entryY=1;entryDx=0;entryDy=0;entryPerimeter=0;" edge="1" parent="1" source="rQDg3eFiB01NHNLz-rsv-36">
          <mxGeometry width="50" height="50" relative="1" as="geometry">
            <mxPoint x="1650" y="390" as="sourcePoint" />
            <mxPoint x="1650" y="190" as="targetPoint" />
          </mxGeometry>
        </mxCell>
        <mxCell id="rQDg3eFiB01NHNLz-rsv-36" value="" style="html=1;points=[[0,0,0,0,5],[0,1,0,0,-5],[1,0,0,0,5],[1,1,0,0,-5]];perimeter=orthogonalPerimeter;outlineConnect=0;targetShapes=umlLifeline;portConstraint=eastwest;newEdgeStyle={&quot;curved&quot;:0,&quot;rounded&quot;:0};fillColor=light-dark(#23458b, #6db2ff);fontColor=#ffffff;strokeColor=#001DBC;" vertex="1" parent="1">
          <mxGeometry x="1645" y="430" width="10" height="30" as="geometry" />
        </mxCell>
        <mxCell id="rQDg3eFiB01NHNLz-rsv-37" value="" style="endArrow=none;dashed=1;html=1;rounded=0;" edge="1" parent="1" source="rQDg3eFiB01NHNLz-rsv-36">
          <mxGeometry width="50" height="50" relative="1" as="geometry">
            <mxPoint x="1649.71" y="440" as="sourcePoint" />
            <mxPoint x="1650" y="470" as="targetPoint" />
          </mxGeometry>
        </mxCell>
        <mxCell id="rQDg3eFiB01NHNLz-rsv-38" value="" style="endArrow=classic;html=1;rounded=0;exitX=1.071;exitY=0.295;exitDx=0;exitDy=0;exitPerimeter=0;" edge="1" parent="1" source="rQDg3eFiB01NHNLz-rsv-32" target="rQDg3eFiB01NHNLz-rsv-36">
          <mxGeometry relative="1" as="geometry">
            <mxPoint x="1370" y="400" as="sourcePoint" />
            <mxPoint x="1640" y="400" as="targetPoint" />
          </mxGeometry>
        </mxCell>
        <mxCell id="rQDg3eFiB01NHNLz-rsv-39" value="Отображает критичное&amp;nbsp;&lt;div&gt;оповещение безопасности&lt;/div&gt;" style="edgeLabel;resizable=0;html=1;;align=center;verticalAlign=middle;" connectable="0" vertex="1" parent="rQDg3eFiB01NHNLz-rsv-38">
          <mxGeometry relative="1" as="geometry" />
        </mxCell>
        <mxCell id="rQDg3eFiB01NHNLz-rsv-40" value="" style="endArrow=none;dashed=1;html=1;rounded=0;" edge="1" parent="1" source="rQDg3eFiB01NHNLz-rsv-13" target="rQDg3eFiB01NHNLz-rsv-29">
          <mxGeometry width="50" height="50" relative="1" as="geometry">
            <mxPoint x="465" y="360" as="sourcePoint" />
            <mxPoint x="465" y="440" as="targetPoint" />
          </mxGeometry>
        </mxCell>
        <mxCell id="rQDg3eFiB01NHNLz-rsv-29" value="" style="html=1;points=[[0,0,0,0,5],[0,1,0,0,-5],[1,0,0,0,5],[1,1,0,0,-5]];perimeter=orthogonalPerimeter;outlineConnect=0;targetShapes=umlLifeline;portConstraint=eastwest;newEdgeStyle={&quot;curved&quot;:0,&quot;rounded&quot;:0};fillColor=light-dark(#23458b, #6db2ff);fontColor=#ffffff;strokeColor=#001DBC;" vertex="1" parent="1">
          <mxGeometry x="460" y="380" width="10" height="50" as="geometry" />
        </mxCell>
        <mxCell id="rQDg3eFiB01NHNLz-rsv-41" value="" style="html=1;points=[[0,0,0,0,5],[0,1,0,0,-5],[1,0,0,0,5],[1,1,0,0,-5]];perimeter=orthogonalPerimeter;outlineConnect=0;targetShapes=umlLifeline;portConstraint=eastwest;newEdgeStyle={&quot;curved&quot;:0,&quot;rounded&quot;:0};fillColor=light-dark(#23458b, #6db2ff);fontColor=#ffffff;strokeColor=#001DBC;" vertex="1" parent="1">
          <mxGeometry x="760" y="370" width="10" height="30" as="geometry" />
        </mxCell>
        <mxCell id="rQDg3eFiB01NHNLz-rsv-42" value="Передает критичное&amp;nbsp;&lt;div&gt;оповещение безопасности&lt;/div&gt;" style="html=1;verticalAlign=bottom;endArrow=open;dashed=1;endSize=8;curved=0;rounded=0;" edge="1" parent="1" target="rQDg3eFiB01NHNLz-rsv-29">
          <mxGeometry x="0.0345" y="20" relative="1" as="geometry">
            <mxPoint x="760" y="380" as="sourcePoint" />
            <mxPoint x="680" y="380" as="targetPoint" />
            <mxPoint as="offset" />
          </mxGeometry>
        </mxCell>
        <mxCell id="rQDg3eFiB01NHNLz-rsv-43" value="" style="endArrow=none;dashed=1;html=1;rounded=0;" edge="1" parent="1" target="rQDg3eFiB01NHNLz-rsv-32">
          <mxGeometry width="50" height="50" relative="1" as="geometry">
            <mxPoint x="1364.71" y="420" as="sourcePoint" />
            <mxPoint x="1365" y="440" as="targetPoint" />
          </mxGeometry>
        </mxCell>
        <mxCell id="rQDg3eFiB01NHNLz-rsv-32" value="" style="html=1;points=[[0,0,0,0,5],[0,1,0,0,-5],[1,0,0,0,5],[1,1,0,0,-5]];perimeter=orthogonalPerimeter;outlineConnect=0;targetShapes=umlLifeline;portConstraint=eastwest;newEdgeStyle={&quot;curved&quot;:0,&quot;rounded&quot;:0};fillColor=light-dark(#23458b, #6db2ff);fontColor=#ffffff;strokeColor=#001DBC;" vertex="1" parent="1">
          <mxGeometry x="1360" y="420" width="10" height="30" as="geometry" />
        </mxCell>
        <mxCell id="rQDg3eFiB01NHNLz-rsv-44" value="" style="endArrow=none;dashed=1;html=1;rounded=0;" edge="1" parent="1">
          <mxGeometry width="50" height="50" relative="1" as="geometry">
            <mxPoint x="1365" y="450" as="sourcePoint" />
            <mxPoint x="1365" y="470" as="targetPoint" />
          </mxGeometry>
        </mxCell>
        <mxCell id="rQDg3eFiB01NHNLz-rsv-45" value="" style="endArrow=none;dashed=1;html=1;rounded=0;" edge="1" parent="1">
          <mxGeometry width="50" height="50" relative="1" as="geometry">
            <mxPoint x="765" y="400" as="sourcePoint" />
            <mxPoint x="765" y="470" as="targetPoint" />
          </mxGeometry>
        </mxCell>
      </root>
    </mxGraphModel>
  </diagram>
</mxfile>
